<svg width="123" height="59" viewBox="0 0 123 59" fill="none" xmlns="http://www.w3.org/2000/svg">
<g clip-path="url(#clip0_1270_342)">
<path d="M22.2765 40.3291C21.8349 40.4398 21.2 40.4951 20.3718 40.4951H7.53592V58.0873H0V0H19.875C25.175 0 29.1775 1.79794 31.8827 5.3938C34.588 8.98969 35.9407 13.5537 35.9407 19.0858C35.9407 21.7412 35.8026 24.0924 35.5265 26.1393C35.3057 28.1861 34.6985 30.2884 33.7046 32.4458C32.7661 34.5482 31.2755 36.3461 29.2327 37.8396L36.0234 58.0873H28.3217L22.2765 40.3291ZM18.7156 33.1927C21.5864 33.1927 23.6843 32.4458 25.0093 30.9523C26.3896 29.4031 27.2451 27.6882 27.5764 25.8073C27.9077 23.8711 28.0734 21.6306 28.0734 19.0858C28.0734 14.7708 27.1625 11.7834 25.3406 10.1238C23.5739 8.4088 20.9791 7.55135 17.5562 7.55135H7.53592V33.1927H18.7156Z" fill="white"/>
<path d="M71.4116 42.8176C71.4116 47.4645 70.1418 51.3095 67.6022 54.3521C65.0627 57.3948 61.2257 58.916 56.0912 58.916C50.9569 58.916 47.0649 57.3948 44.4148 54.3521C41.8201 51.2541 40.5225 47.4092 40.5225 42.8176V31.864C40.5225 26.6086 41.8476 22.5977 44.4975 19.8317C47.2027 17.0103 51.0674 15.5996 56.0912 15.5996C60.8944 15.5996 64.6487 17.0656 67.3539 19.9976C70.0591 22.8743 71.4116 26.8297 71.4116 31.864V42.8176ZM63.9585 31.864C63.9585 26 61.336 23.068 56.0912 23.068C53.7173 23.068 51.7852 23.7318 50.2943 25.0595C48.8038 26.3872 48.0585 28.6553 48.0585 31.864V43.6473C48.0585 46.2475 48.8038 48.2391 50.2943 49.6222C51.7852 50.9497 53.7173 51.6136 56.0912 51.6136C58.4651 51.6136 60.3699 50.922 61.8054 49.5392C63.2408 48.1561 63.9585 46.1921 63.9585 43.6473V31.864Z" fill="white"/>
<path d="M75.4102 16.5135H82.5319L82.8632 17.7582C85.2372 16.4858 87.8594 15.8496 90.7303 15.8496C92.7178 15.8496 95.0366 16.1539 97.6867 16.7624L95.8646 23.9818C94.374 23.318 92.7729 22.986 91.0616 22.986C88.7979 22.986 86.8658 23.5669 85.2647 24.7286C83.7188 25.8351 82.9459 27.3842 82.9459 29.3756V58.0874H75.4102V16.5135Z" fill="white"/>
<path d="M123 58.0874C117.037 58.6957 112.731 59.0001 110.081 59.0001C104.284 59.0001 99.6744 57.9214 96.2515 55.7637C92.8285 53.6063 91.1172 49.706 91.1172 44.0634V37.1758C91.1172 31.699 93.0217 28.0201 96.8311 26.1394C98.6532 25.2542 100.806 24.8116 103.291 24.8116C105.499 24.8116 107.735 25.1435 109.998 25.8074C112.262 26.4713 114.084 27.2458 115.464 28.1308C115.464 25.8074 114.581 24.0648 112.814 22.9031C111.047 21.7413 108.508 21.1604 105.195 21.1604L105.775 15.8496C111.075 15.8496 114.967 16.7071 117.451 18.422C119.991 20.0817 121.537 22.0732 122.089 24.3967C122.696 26.7203 123 29.7076 123 33.3589V58.0874ZM115.464 35.6823C114.028 34.8524 112.29 34.1055 110.247 33.4416C108.204 32.778 106.299 32.4459 104.533 32.4459C100.613 32.4459 98.6532 34.2992 98.6532 38.0058V43.4826C98.6532 49.1805 102.297 52.0297 109.584 52.0297C111.351 52.0297 113.311 51.8637 115.464 51.5316V35.6823Z" fill="white"/>
</g>
<defs>
<clipPath id="clip0_1270_342">
<rect width="123" height="59" fill="white"/>
</clipPath>
</defs>
</svg>
